<svg xmlns="http://www.w3.org/2000/svg" viewBox="0 0 500 500" width="100%" height="100%">
  <defs>
    <linearGradient id="g1" x1="0%" y1="0%" x2="100%" y2="100%">
      <stop offset="0%" stop-color="#FFE5EC"/>
      <stop offset="100%" stop-color="#FFCCD5"/>
    </linearGradient>
  </defs>
  <rect width="500" height="500" fill="url(#g1)"/>
  <circle cx="250" cy="220" r="140" fill="#FFFDF9"/>
  <!-- Cute Coffee / Cafe Date Illustration -->
  <g transform="translate(180, 160)">
    <!-- Cup 1 -->
    <rect x="10" y="30" width="50" height="55" rx="8" fill="#DDB892" stroke="#B07D54" stroke-width="2"/>
    <path d="M60 42 Q75 42 75 56 Q75 70 60 70" stroke="#B07D54" stroke-width="3" fill="none"/>
    <path d="M25 15 Q30 5 35 15" stroke="#FF8FA3" stroke-width="2" stroke-linecap="round"/>
    <path d="M40 15 Q45 5 50 15" stroke="#FF8FA3" stroke-width="2" stroke-linecap="round"/>
    <path d="M35 55 C35 48 28 48 28 55 C28 62 35 68 35 68 C35 68 42 62 42 55 C42 48 35 48 35 55 Z" fill="#FF4D6D"/>
    <!-- Cup 2 -->
    <rect x="75" y="35" width="45" height="50" rx="8" fill="#FFFDF9" stroke="#FF8FA3" stroke-width="2"/>
    <path d="M120 45 Q132 45 132 57 Q132 68 120 68" stroke="#FF8FA3" stroke-width="3" fill="none"/>
    <path d="M98 60 C98 54 92 54 92 60 C92 66 98 71 98 71 C98 71 104 66 104 60 C104 54 98 54 98 60 Z" fill="#FF8FA3"/>
  </g>
  <text x="250" y="400" font-family="'Gaegu', cursive" font-size="28" font-weight="bold" fill="#5E4044" text-anchor="middle">Cozy Cafe Moments ☕💕</text>
  <text x="250" y="430" font-family="'Nunito', sans-serif" font-size="14" fill="#A27B80" text-anchor="middle">Click to customize photo in config.js</text>
</svg>
